<?xml version="1.0" encoding="utf-8"?><svg xmlns="http://www.w3.org/2000/svg" xmlns:xlink="http://www.w3.org/1999/xlink"><symbol fill="none" viewBox="0 0 17 11" id="accardeon" xmlns="http://www.w3.org/2000/svg"><path d="M1.5 1L9 9l7.5-8"/></symbol><symbol fill="none" viewBox="0 0 13 12" id="added" xmlns="http://www.w3.org/2000/svg"><path d="M1 6.714L5.125 11 12 1" stroke="#fff" stroke-width="1.5" stroke-linejoin="round"/></symbol><symbol fill="none" viewBox="0 0 10 6" id="arrow-crumb" xmlns="http://www.w3.org/2000/svg"><path d="M0 3h9m0 0L7 1m2 2L7 5" stroke="#8D9DC5"/></symbol><symbol viewBox="0 0 16 14" id="basket" xmlns="http://www.w3.org/2000/svg"><path d="M6.156 14a1.231 1.231 0 100-2.462 1.231 1.231 0 000 2.462zM10.787 14a1.231 1.231 0 100-2.462 1.231 1.231 0 000 2.462zM13.651 8.345l2.313-5.354a.441.441 0 00-.405-.615H4.138L3.815.46A.551.551 0 003.27 0H.551a.551.551 0 100 1.102h2.254l1.576 9.352c.045.265.275.46.544.46h6.762a.551.551 0 100-1.103H5.39l-.202-1.2h8.057a.441.441 0 00.405-.266z"/></symbol><symbol fill="none" viewBox="0 0 12 14" id="box" xmlns="http://www.w3.org/2000/svg"><path d="M11.25 10.07L6 13.131.75 10.069V3.931L6 .868l5.25 3.063v6.138z" stroke="#265DEB" stroke-width="1.5" stroke-miterlimit="2.613"/></symbol><symbol viewBox="0 0 26 16" id="burger" xmlns="http://www.w3.org/2000/svg"><path d="M1 1h24M1 15h21M1 8h15.36"/></symbol><symbol fill="none" viewBox="0 0 22 24" id="calc" xmlns="http://www.w3.org/2000/svg"><path d="M21 7.81V5.19C21 2.876 19.032 1 16.603 1H5.397C2.969 1 1 2.876 1 5.19v2.62m20 0v7.333m0-7.333H10.836M21 15.143v3.666C21 21.125 19.032 23 16.603 23h-5.84M21 15.143H10.801M10.764 23H5.397C2.969 23 1 21.124 1 18.81v-3.667M10.764 23l.037-7.857m-9.8 0V7.81m0 7.333h9.8m-9.8-7.333h9.835m0 0l-.035 7.333m-3.784 2.619l-1.099 1.047m0 0l-1.1 1.048m1.1-1.047l-1.1-1.048m1.1 1.047l1.1 1.048m7.274-8.407h3.24m-3.24 6.312h3.24m-3.24 2.095h3.24M5.919 9.8v1.65m0 0v1.65m0-1.65H4.184m1.734 0h1.734" stroke="#fff" stroke-width="1.5" stroke-linecap="round"/></symbol><symbol fill="none" viewBox="0 0 17 17" id="close" xmlns="http://www.w3.org/2000/svg"><path d="M16.5.5l-8 8m0 0l-8 8m8-8l8 8m-8-8l-8-8" stroke="#0F2D79"/></symbol><symbol fill="none" viewBox="0 0 13 13" id="count-close" xmlns="http://www.w3.org/2000/svg"><path d="M9 4L6.5 6.5m0 0L4 9m2.5-2.5L9 9M6.5 6.5L4 4" stroke="#0F2D79"/></symbol><symbol fill="none" viewBox="0 0 10 7" id="drop" xmlns="http://www.w3.org/2000/svg"><path d="M1 1l4 4 4-4" stroke="#fff" stroke-width="2"/></symbol><symbol fill="none" viewBox="0 0 13 2" id="minus" xmlns="http://www.w3.org/2000/svg"><path d="M13 1H0" stroke="#0F2D79" stroke-width="2"/></symbol><symbol fill="none" viewBox="0 0 13 13" id="plus" xmlns="http://www.w3.org/2000/svg"><path d="M6.5 0v13M13 6.5H0" stroke="#0F2D79" stroke-width="2"/></symbol><symbol fill="none" viewBox="0 0 18 18" id="question" xmlns="http://www.w3.org/2000/svg"><path d="M7.55 10.006v-.453c0-.229.043-.441.128-.637.085-.195.229-.396.432-.603.136-.14.229-.257.28-.352a.58.58 0 00.085-.302c0-.262-.187-.394-.56-.394-.497 0-.974.17-1.432.512L6 6.654c.26-.201.573-.36.94-.478A3.577 3.577 0 018.035 6c.39 0 .732.061 1.025.184.3.123.531.296.695.52.164.223.246.48.246.77 0 .252-.06.487-.178.705-.113.212-.32.427-.619.645-.265.19-.446.358-.542.503-.09.145-.147.28-.17.402l-.05.277h-.89zM7.213 12v-1.525H8.78V12H7.212z" fill="#0F2D79"/><path d="M3.91 3.282v-.76C3.91 1.68 4.56 1 5.363 1h10.181C16.35 1 17 1.681 17 2.521v7.366c0 .84-.651 1.52-1.454 1.52h-.728M3.91 3.283h-.727C1.977 3.282 1 4.303 1 5.563v6.845c0 1.26.977 2.282 2.182 2.282h6.69c.615 0 1.214.203 1.711.581l2.08 1.582c.48.366 1.155.007 1.155-.615v-4.83M3.91 3.282h8.727c1.205 0 2.182 1.021 2.182 2.281v5.845" stroke="#0F2D79"/></symbol><symbol fill="none" viewBox="0 0 25 25" id="reload" xmlns="http://www.w3.org/2000/svg"><path d="M.5 12.685c0 1.584.316 3.14.943 4.598a11.746 11.746 0 002.571 3.755A12.071 12.071 0 0012.5 24.5a12.072 12.072 0 008.486-3.462 11.755 11.755 0 002.57-3.758c.628-1.458.944-3.005.944-4.603 0-1.595-.316-3.145-.944-4.603a11.795 11.795 0 00-2.57-3.76 11.915 11.915 0 00-3.814-2.536A12.072 12.072 0 0012.5.848a12.071 12.071 0 00-9.068 4.073V.5H1.824v7.748h7.864V6.664h-5.61c1.94-2.638 5.058-4.23 8.422-4.23 5.73 0 10.392 4.594 10.392 10.243 0 5.646-4.661 10.241-10.392 10.241-5.73 0-10.392-4.608-10.392-10.233H.5z" fill="#265DEB"/></symbol><symbol fill="none" viewBox="0 0 16 17" id="search" xmlns="http://www.w3.org/2000/svg"><path d="M10.758 11.596A6.012 6.012 0 0012.878 7c0-3.314-2.658-6-5.939-6C3.66 1 1 3.686 1 7s2.66 6 5.94 6a5.88 5.88 0 003.818-1.404zm0 0L15 16" stroke="#0F2D79" stroke-width="1.5"/></symbol><symbol fill="none" viewBox="0 0 21 22" id="search-white" xmlns="http://www.w3.org/2000/svg"><path d="M13.848 14.715A7.18 7.18 0 0016.424 9.2c0-3.976-3.229-7.2-7.212-7.2C5.23 2 2 5.224 2 9.2c0 3.977 3.229 7.2 7.212 7.2a7.19 7.19 0 004.636-1.685zm0 0L19 20" stroke="#fff" stroke-width="2.5" stroke-linecap="round"/></symbol><symbol fill="none" viewBox="0 0 15 15" id="up" xmlns="http://www.w3.org/2000/svg"><path d="M13.5 8l-6-6-6 6m12 6l-6-6-6 6"/></symbol></svg>