<svg width="15" height="14" viewBox="0 0 15 14" fill="none" xmlns="http://www.w3.org/2000/svg"><path d="M5.771 13.5c.638 0 1.155-.512 1.155-1.143s-.517-1.143-1.155-1.143c-.637 0-1.154.512-1.154 1.143S5.134 13.5 5.771 13.5zm4.342 0c.637 0 1.154-.512 1.154-1.143s-.517-1.143-1.154-1.143c-.638 0-1.155.512-1.155 1.143s.517 1.143 1.155 1.143zm2.685-5.251l2.168-4.971a.406.406 0 00-.034-.388.415.415 0 00-.345-.184H3.879L3.576.926A.515.515 0 003.066.5H.517A.514.514 0 000 1.012c0 .282.231.512.517.512h2.112l1.478 8.683a.516.516 0 00.51.427h6.34c.285 0 .516-.23.516-.512a.514.514 0 00-.517-.512H5.054l-.19-1.114h7.554a.414.414 0 00.38-.247z" fill="#fff"/></svg>