<svg width="263" height="47" viewBox="0 0 263 47" fill="none" xmlns="http://www.w3.org/2000/svg"><path d="M9.174 37.536l.446-2.866c-2.909-.254-5.245-1.174-7.009-2.763C.871 30.296 0 28.11 0 25.347c0-2.119.47-4.052 1.409-5.802.962-1.772 2.393-3.188 4.294-4.247 1.924-1.059 4.33-1.588 7.216-1.588l.412-2.625h6.322l-.447 2.832c2.91.253 5.234 1.174 6.975 2.762 1.764 1.589 2.645 3.776 2.645 6.561 0 2.118-.48 4.063-1.443 5.836-.939 1.75-2.37 3.153-4.294 4.212-1.902 1.06-4.307 1.589-7.216 1.589l-.412 2.659H9.174zM6.39 25.139c0 1.427.286 2.555.859 3.384.572.806 1.626 1.29 3.16 1.45l1.822-11.602c-1.42.07-2.554.426-3.402 1.07a5.352 5.352 0 00-1.855 2.452c-.39.99-.584 2.072-.584 3.246zm16.045-1.692c0-1.45-.287-2.578-.86-3.384-.572-.829-1.625-1.323-3.16-1.485L16.56 30.215c1.42-.069 2.553-.414 3.401-1.036a5.508 5.508 0 001.89-2.451c.39-1.013.584-2.107.584-3.28zm8.235 13.122l3.847-24.344h5.876l-2.13 13.708L51.49 12.225h4.639L52.28 36.569h-5.84l2.164-13.778L35.308 36.57h-4.639zm26.036 0l3.848-24.344h6.322L65.4 21.617h9.964l1.511-9.392h6.288l-3.848 24.344h-6.288l1.512-9.738h-9.964l-1.546 9.738h-6.322zm96.976.38c-2.245 0-4.261-.415-6.048-1.243a9.92 9.92 0 01-4.191-3.764c-1.008-1.68-1.512-3.741-1.512-6.181 0-1.957.298-3.776.893-5.456.596-1.68 1.466-3.154 2.612-4.42 1.168-1.266 2.599-2.256 4.294-2.97 1.718-.713 3.688-1.07 5.91-1.07 1.649 0 3.207.253 4.673.76 1.466.483 2.622 1.116 3.47 1.899l-2.371 4.972c-1.855-1.404-3.825-2.106-5.91-2.106-1.534 0-2.817.368-3.848 1.105-1.007.713-1.775 1.692-2.302 2.935-.504 1.22-.755 2.59-.755 4.109 0 2.026.469 3.522 1.408 4.489.939.944 2.417 1.416 4.432 1.416.894 0 1.821-.15 2.783-.45.962-.298 1.97-.793 3.024-1.484l1.58 5.007c-.641.506-1.42.944-2.336 1.312-.916.369-1.878.645-2.886.829-1.008.207-1.981.31-2.92.31zm15.899-.38l3.023-19.165h-7.696l.825-5.18h21.714l-.824 5.18h-7.697l-3.023 19.165h-6.322zm16.408 0l3.848-24.344h10.239c2.931 0 5.119.633 6.562 1.899 1.466 1.243 2.199 2.958 2.199 5.145 0 2.855-.871 5.053-2.611 6.595-1.718 1.543-4.215 2.314-7.49 2.314h-5.085l-1.34 8.39h-6.322zm8.417-13.26h4.57c2.565 0 3.848-1.163 3.848-3.488 0-1.818-1.202-2.728-3.607-2.728h-3.848l-.963 6.216zm27.213 13.64c-2.314 0-4.33-.426-6.047-1.278-1.718-.875-3.058-2.118-4.02-3.73-.939-1.634-1.409-3.602-1.409-5.904 0-2.808.55-5.272 1.649-7.39 1.1-2.14 2.634-3.81 4.604-5.006 1.993-1.198 4.295-1.796 6.906-1.796 2.314 0 4.329.437 6.047 1.312 1.718.852 3.047 2.095 3.986 3.73.962 1.61 1.443 3.556 1.443 5.835 0 2.831-.55 5.318-1.65 7.459-1.099 2.117-2.634 3.775-4.603 4.972-1.97 1.197-4.272 1.796-6.906 1.796zm.068-5.318c1.375 0 2.543-.368 3.505-1.105.985-.737 1.741-1.761 2.267-3.073.527-1.335.791-2.866.791-4.593 0-1.934-.458-3.36-1.375-4.282-.893-.944-2.118-1.415-3.676-1.415-1.351 0-2.52.368-3.504 1.105-.963.736-1.707 1.772-2.234 3.107-.504 1.313-.756 2.832-.756 4.558 0 1.934.447 3.373 1.34 4.317.894.92 2.108 1.38 3.642 1.38zm14.899 4.938l3.848-24.344h5.876l-2.131 13.708 13.228-13.708h4.639l-3.848 24.344h-5.841l2.164-13.778-13.296 13.778h-4.639zm14.706-26.244c-1.466 0-2.669-.23-3.608-.69-.939-.46-1.672-1.082-2.199-1.865a6.571 6.571 0 01-1.031-2.624l2.955-.932c.321 1.059.802 1.818 1.443 2.279.641.46 1.535.69 2.68.69 1.168 0 2.107-.253 2.817-.76.733-.529 1.306-1.254 1.718-2.175l2.68.898c-.435 1.542-1.305 2.797-2.611 3.764-1.306.944-2.92 1.415-4.844 1.415z" fill="#0F2D79"/><path d="M112.686 2.038c-11.794 0-21.355 9.62-21.355 21.488 0 4.277 1.242 8.263 3.384 11.611.085.133.27.152.38.04l17.415-17.595a.247.247 0 01.352 0l7.988 8.067 2.498 2.524 1.505 1.525 5.423 5.479c.11.112.296.093.381-.04a21.486 21.486 0 003.383-11.611c0-11.867-9.561-21.488-21.354-21.488z" fill="#FF6433"/><path d="M94.952 35.528c3.85 5.693 10.355 9.434 17.734 9.434 7.378 0 13.884-3.741 17.733-9.434a.249.249 0 00-.03-.313l-5.508-5.542-1.508-1.522-2.504-2.52-8.007-8.053a.249.249 0 00-.353 0L94.983 35.215a.248.248 0 00-.03.313z" fill="#fff"/><path fill-rule="evenodd" clip-rule="evenodd" d="M112.686 4c-10.716 0-19.403 8.73-19.403 19.5 0 3.094.716 6.017 1.99 8.613l17.412-17.572 6.19 6.243v-3.909h6.482v10.45l.928.94 3.813 3.848a19.496 19.496 0 001.99-8.613c0-10.77-8.687-19.5-19.402-19.5zm15.231 31.58l-4.454-4.495-10.777-10.876L97.454 35.58c3.556 4.523 9.058 7.42 15.232 7.42 6.174 0 11.675-2.897 15.231-7.42zM89.303 23.5c0-12.979 10.469-23.5 23.383-23.5s23.382 10.521 23.382 23.5c0 4.795-1.431 9.26-3.888 12.981C127.996 42.816 120.827 47 112.686 47c-8.142 0-15.31-4.184-19.495-10.519A23.483 23.483 0 0189.303 23.5z" fill="#0F2D79"/></svg>