<svg width="263" height="65" viewBox="0 0 263 65" fill="none" xmlns="http://www.w3.org/2000/svg">
<path d="M9.17359 37.5357L9.62024 34.6697C6.71127 34.4164 4.37492 33.4956 2.61121 31.9072C0.870403 30.2958 0 28.1089 0 25.3464C0 23.2285 0.46956 21.2948 1.40868 19.5453C2.3707 17.7727 3.80229 16.3569 5.70343 15.298C7.62748 14.2391 10.0325 13.7096 12.9186 13.7096L13.3309 11.0853H19.6528L19.2061 13.9168C22.1151 14.17 24.44 15.0908 26.1808 16.6792C27.9445 18.2676 28.8264 20.4546 28.8264 23.24C28.8264 25.3579 28.3454 27.3031 27.3833 29.0757C26.4442 30.8253 25.0126 32.2295 23.0886 33.2884C21.1874 34.3474 18.7824 34.8769 15.8734 34.8769L15.4611 37.5357H9.17359ZM6.39059 25.1392C6.39059 26.5665 6.67691 27.6945 7.24954 28.5232C7.82218 29.3289 8.87582 29.8124 10.4105 29.9735L12.2315 18.3712C10.8113 18.4403 9.67751 18.7971 8.83001 19.4417C7.98251 20.0632 7.36407 20.8804 6.97468 21.8933C6.58529 22.8832 6.39059 23.9652 6.39059 25.1392ZM22.4358 23.4472C22.4358 21.9969 22.1495 20.8689 21.5768 20.0632C21.0042 19.2345 19.9506 18.7396 18.4159 18.5784L16.5606 30.2152C17.9807 30.1462 19.1145 29.8009 19.962 29.1793C20.8324 28.5347 21.4623 27.7175 21.8517 26.7276C22.2411 25.7147 22.4358 24.6213 22.4358 23.4472Z" fill="#0F2D79"/>
<path d="M30.6694 36.5689L34.5175 12.2248H40.3927L38.2625 25.9334L51.4903 12.2248H56.1287L52.2806 36.5689H46.4397L48.6042 22.7911L35.3077 36.5689H30.6694Z" fill="#0F2D79"/>
<path d="M56.7063 36.5689L60.5544 12.2248H66.8763L65.3989 21.6171H75.3627L76.8745 12.2248H83.162L79.3139 36.5689H73.0264L74.5381 26.8312H64.5743L63.0282 36.5689H56.7063Z" fill="#0F2D79"/>
<path d="M153.682 36.9487C151.437 36.9487 149.421 36.5343 147.635 35.7056C145.871 34.8538 144.474 33.5992 143.443 31.9418C142.435 30.2613 141.931 28.201 141.931 25.7608C141.931 23.8041 142.229 21.9854 142.824 20.305C143.42 18.6245 144.29 17.1512 145.436 15.885C146.604 14.6189 148.035 13.629 149.73 12.9154C151.448 12.2018 153.418 11.8449 155.64 11.8449C157.289 11.8449 158.847 12.0982 160.313 12.6046C161.779 13.0881 162.935 13.7211 163.783 14.5038L161.412 19.4762C159.557 18.072 157.587 17.3698 155.503 17.3698C153.968 17.3698 152.685 17.7382 151.654 18.4748C150.647 19.1885 149.879 20.1668 149.352 21.4099C148.849 22.63 148.597 23.9997 148.597 25.5191C148.597 27.5449 149.066 29.0412 150.005 30.0081C150.944 30.9519 152.422 31.4238 154.437 31.4238C155.331 31.4238 156.258 31.2742 157.22 30.9749C158.182 30.6756 159.19 30.1807 160.244 29.4901L161.824 34.497C161.183 35.0035 160.404 35.4409 159.488 35.8092C158.572 36.1775 157.61 36.4538 156.602 36.6379C155.594 36.8451 154.621 36.9487 153.682 36.9487Z" fill="#0F2D79"/>
<path d="M169.581 36.5689L172.605 17.4044H164.908L165.733 12.2248H187.447L186.623 17.4044H178.926L175.903 36.5689H169.581Z" fill="#0F2D79"/>
<path d="M185.989 36.5689L189.837 12.2248H200.076C203.008 12.2248 205.195 12.8578 206.638 14.124C208.104 15.3671 208.837 17.0821 208.837 19.269C208.837 22.1236 207.967 24.322 206.226 25.8644C204.508 27.4067 202.011 28.1779 198.736 28.1779H193.651L192.311 36.5689H185.989ZM194.407 23.3091H198.976C201.542 23.3091 202.824 22.1466 202.824 19.8215C202.824 18.0029 201.622 17.0936 199.217 17.0936H195.369L194.407 23.3091Z" fill="#0F2D79"/>
<path d="M221.619 36.9487C219.305 36.9487 217.29 36.5228 215.572 35.6711C213.854 34.7963 212.514 33.5532 211.552 31.9418C210.613 30.3073 210.143 28.3391 210.143 26.037C210.143 23.2285 210.693 20.7654 211.792 18.6475C212.892 16.5066 214.426 14.8376 216.396 13.6405C218.389 12.4435 220.691 11.8449 223.302 11.8449C225.616 11.8449 227.631 12.2823 229.349 13.1571C231.067 14.0089 232.396 15.252 233.335 16.8864C234.297 18.4978 234.778 20.4431 234.778 22.7221C234.778 25.5536 234.228 28.0398 233.129 30.1807C232.029 32.2986 230.494 33.9561 228.525 35.1531C226.555 36.3502 224.253 36.9487 221.619 36.9487ZM221.687 31.631C223.062 31.631 224.23 31.2627 225.192 30.526C226.177 29.7894 226.933 28.7649 227.46 27.4528C227.986 26.1176 228.25 24.5867 228.25 22.8602C228.25 20.9265 227.792 19.4992 226.875 18.5784C225.982 17.6346 224.757 17.1627 223.199 17.1627C221.848 17.1627 220.68 17.531 219.695 18.2676C218.733 19.0043 217.988 20.0402 217.461 21.3754C216.957 22.6876 216.705 24.2069 216.705 25.9334C216.705 27.8672 217.152 29.3059 218.045 30.2498C218.939 31.1706 220.153 31.631 221.687 31.631Z" fill="#0F2D79"/>
<path d="M236.586 36.5689L240.435 12.2248H246.31L244.18 25.9334L257.407 12.2248H262.046L258.198 36.5689H252.357L254.521 22.7912L241.225 36.5689H236.586ZM251.292 10.3256C249.826 10.3256 248.623 10.0954 247.684 9.63499C246.745 9.17458 246.012 8.55303 245.485 7.77034C244.958 6.98764 244.615 6.11287 244.454 5.14601L247.409 4.21368C247.73 5.27262 248.211 6.0323 248.852 6.4927C249.494 6.95311 250.387 7.18332 251.532 7.18332C252.7 7.18332 253.639 6.93009 254.35 6.42364C255.082 5.89417 255.655 5.16903 256.067 4.24821L258.747 5.14601C258.312 6.68838 257.442 7.94299 256.136 8.90985C254.831 9.85368 253.216 10.3256 251.292 10.3256Z" fill="#0F2D79"/>
<path d="M112.686 2.03827C100.892 2.03827 91.3313 11.6584 91.3313 23.5255C91.3313 27.8031 92.5736 31.7888 94.7149 35.1372C94.7999 35.2702 94.9851 35.2885 95.0959 35.1765L112.51 17.5818C112.607 17.4838 112.765 17.4838 112.862 17.5818L120.85 25.6492L123.348 28.173L124.853 29.6975L130.276 35.1765C130.386 35.2885 130.572 35.2702 130.657 35.1372C132.798 31.7888 134.04 27.8031 134.04 23.5255C134.04 11.6584 124.48 2.03827 112.686 2.03827Z" fill="#FF6433"/>
<path d="M94.9524 35.5284C98.8011 41.2208 105.307 44.9618 112.686 44.9618C120.064 44.9618 126.57 41.2208 130.419 35.5284C130.485 35.4303 130.472 35.2989 130.389 35.2149L124.881 29.6732L123.373 28.1514L120.869 25.6319L112.862 17.5785C112.765 17.4807 112.607 17.4807 112.509 17.5785L94.9826 35.2149C94.8991 35.2989 94.8861 35.4303 94.9524 35.5284Z" fill="white"/>
<path fill-rule="evenodd" clip-rule="evenodd" d="M112.686 4C101.97 4 93.2832 12.7304 93.2832 23.5C93.2832 26.5943 93.9991 29.5169 95.2732 32.1132L112.685 14.5411L118.875 20.7842V16.875H125.357V27.3259L126.285 28.2644L130.098 32.1132C131.372 29.5169 132.088 26.5943 132.088 23.5C132.088 12.7304 123.401 4 112.686 4ZM127.917 35.5808L123.463 31.0851L112.686 20.2089L97.4541 35.5808C101.01 40.1031 106.512 43 112.686 43C118.86 43 124.361 40.1031 127.917 35.5808ZM89.3032 23.5C89.3032 10.5213 99.7719 0 112.686 0C125.6 0 136.068 10.5213 136.068 23.5C136.068 28.2954 134.637 32.7609 132.18 36.4811C127.996 42.8165 120.827 47 112.686 47C104.544 47 97.3759 42.8165 93.1916 36.4811C90.7345 32.7609 89.3032 28.2954 89.3032 23.5Z" fill="#0F2D79"/>
<path d="M15.4399 56.17L14.8999 55.21C15.1799 55.07 15.4332 54.9067 15.6599 54.72C15.8932 54.5334 16.0999 54.2967 16.2799 54.01C16.4599 53.7167 16.6199 53.3467 16.7599 52.9C16.8999 52.4534 17.0232 51.9 17.1299 51.24L17.4999 48.95H22.4799L21.3599 56H20.0799L21.0299 50.02H18.5099L18.2599 51.57C18.1132 52.4767 17.9166 53.23 17.6699 53.83C17.4299 54.43 17.1266 54.9134 16.7599 55.28C16.3932 55.6467 15.9532 55.9434 15.4399 56.17Z" fill="#0F2D79"/>
<path d="M26.2794 56L27.7394 53.8L25.5094 48.95H26.8094L28.4894 52.69L30.9894 48.95H32.3794L27.6694 56H26.2794Z" fill="#0F2D79"/>
<path d="M38.451 56L38.881 53.25C38.6877 53.3367 38.451 53.4067 38.171 53.46C37.8977 53.5134 37.621 53.54 37.341 53.54C36.7677 53.54 36.2843 53.4234 35.891 53.19C35.4977 52.95 35.2177 52.6067 35.051 52.16C34.8843 51.7067 34.851 51.1634 34.951 50.53L35.201 48.95H36.481L36.231 50.52C36.1243 51.1867 36.181 51.6734 36.401 51.98C36.6277 52.2867 37.0243 52.44 37.591 52.44C37.831 52.44 38.081 52.4167 38.341 52.37C38.601 52.3167 38.841 52.2367 39.061 52.13L39.571 48.95H40.851L39.731 56H38.451Z" fill="#0F2D79"/>
<path d="M43.6737 56L44.7937 48.95H46.0537L45.1037 54.93H47.7937L48.7437 48.95H50.0037L49.0537 54.93H51.7437L52.6937 48.95H53.9537L52.8337 56H43.6737Z" fill="#0F2D79"/>
<path d="M56.7868 56L57.8968 48.95H62.5868L62.4268 49.97H58.9668L58.6568 51.91H61.9068L61.7468 52.93H58.4968L58.1668 54.98H61.6268L61.4668 56H56.7868Z" fill="#0F2D79"/>
<path d="M65.1536 56L66.2636 48.95H70.9536L70.7936 49.97H67.3336L67.0236 51.91H70.2736L70.1136 52.93H66.8636L66.5336 54.98H69.9936L69.8336 56H65.1536Z" fill="#0F2D79"/>
<path d="M77.7157 57.65L78.1357 54.98H78.8457C79.2257 54.5934 79.5424 54.0634 79.7957 53.39C80.0557 52.7167 80.269 51.8667 80.4357 50.84L80.7357 48.95H85.7257L84.7657 54.98H85.7657L85.3357 57.65H84.2057L84.4657 56H79.1157L78.8557 57.65H77.7157ZM80.2057 54.98H83.4857L84.2857 49.97H81.7657L81.6157 50.91C81.4623 51.89 81.2757 52.7167 81.0557 53.39C80.8423 54.0567 80.559 54.5867 80.2057 54.98Z" fill="#0F2D79"/>
<path d="M89.054 56.17L88.514 55.21C88.794 55.07 89.0473 54.9067 89.274 54.72C89.5073 54.5334 89.714 54.2967 89.894 54.01C90.074 53.7167 90.234 53.3467 90.374 52.9C90.514 52.4534 90.6373 51.9 90.744 51.24L91.114 48.95H96.094L94.974 56H93.694L94.644 50.02H92.124L91.874 51.57C91.7273 52.4767 91.5306 53.23 91.284 53.83C91.044 54.43 90.7406 54.9134 90.374 55.28C90.0073 55.6467 89.5673 55.9434 89.054 56.17Z" fill="#0F2D79"/>
<path d="M98.4435 56L99.9435 53.83C100.104 53.6034 100.26 53.4267 100.413 53.3C100.567 53.1667 100.74 53.0767 100.933 53.03C100.473 52.9034 100.123 52.6834 99.8835 52.37C99.6502 52.0567 99.5335 51.6667 99.5335 51.2C99.5335 50.6867 99.6502 50.2634 99.8835 49.93C100.117 49.5967 100.433 49.35 100.833 49.19C101.24 49.03 101.697 48.95 102.203 48.95H105.383L104.263 56H102.983L103.433 53.18H102.563C102.317 53.18 102.107 53.22 101.933 53.3C101.76 53.38 101.597 53.53 101.443 53.75L99.8935 56H98.4435ZM102.103 52.23H103.583L103.943 49.96H102.203C101.75 49.96 101.397 50.0667 101.143 50.28C100.897 50.4867 100.773 50.79 100.773 51.19C100.773 51.5367 100.88 51.7967 101.093 51.97C101.307 52.1434 101.643 52.23 102.103 52.23Z" fill="#0F2D79"/>
<path d="M113.303 56L114.423 48.95H115.703L115.223 51.94H116.203L118.573 48.95H120.003L117.403 52.21C117.623 52.33 117.81 52.4967 117.963 52.71C118.123 52.9234 118.257 53.1834 118.363 53.49L119.253 56H117.943L117.253 53.97C117.14 53.6234 116.983 53.3767 116.783 53.23C116.583 53.0834 116.317 53.01 115.983 53.01H115.063L114.583 56H113.303Z" fill="#0F2D79"/>
<path d="M122.451 56L123.571 48.95H126.311C127.091 48.95 127.685 49.12 128.091 49.46C128.498 49.7934 128.701 50.2767 128.701 50.91C128.701 51.6767 128.465 52.2767 127.991 52.71C127.518 53.1434 126.831 53.36 125.931 53.36H124.151L123.731 56H122.451ZM124.311 52.35H125.991C126.471 52.35 126.835 52.2367 127.081 52.01C127.335 51.7767 127.461 51.4434 127.461 51.01C127.461 50.31 127.028 49.96 126.161 49.96H124.691L124.311 52.35Z" fill="#0F2D79"/>
<path d="M134.707 56.1C134.081 56.1 133.534 55.98 133.067 55.74C132.601 55.5 132.237 55.15 131.977 54.69C131.724 54.2234 131.597 53.6634 131.597 53.01C131.597 52.2034 131.744 51.49 132.037 50.87C132.337 50.2434 132.764 49.75 133.317 49.39C133.871 49.03 134.527 48.85 135.287 48.85C135.921 48.85 136.467 48.97 136.927 49.21C137.394 49.45 137.754 49.8 138.007 50.26C138.267 50.72 138.397 51.2767 138.397 51.93C138.397 52.7367 138.247 53.4534 137.947 54.08C137.654 54.7067 137.231 55.2 136.677 55.56C136.131 55.92 135.474 56.1 134.707 56.1ZM134.727 55C135.227 55 135.651 54.87 135.997 54.61C136.344 54.3434 136.607 53.98 136.787 53.52C136.967 53.06 137.057 52.5367 137.057 51.95C137.057 51.2767 136.897 50.7767 136.577 50.45C136.257 50.1167 135.817 49.95 135.257 49.95C134.764 49.95 134.344 50.08 133.997 50.34C133.651 50.6 133.387 50.96 133.207 51.42C133.027 51.8734 132.937 52.3967 132.937 52.99C132.937 53.67 133.097 54.1767 133.417 54.51C133.737 54.8367 134.174 55 134.727 55Z" fill="#0F2D79"/>
<path d="M141.529 56L142.649 48.95H145.549C146.329 48.95 146.892 49.1067 147.239 49.42C147.592 49.7267 147.769 50.1267 147.769 50.62C147.769 51.0734 147.639 51.4567 147.379 51.77C147.125 52.0767 146.785 52.29 146.359 52.41C146.699 52.53 146.962 52.72 147.149 52.98C147.335 53.24 147.429 53.5467 147.429 53.9C147.429 54.5867 147.202 55.11 146.749 55.47C146.295 55.8234 145.669 56 144.869 56H141.529ZM143.409 51.94H145.119C145.565 51.94 145.912 51.84 146.159 51.64C146.405 51.44 146.529 51.15 146.529 50.77C146.529 50.4967 146.432 50.2867 146.239 50.14C146.052 49.9934 145.755 49.92 145.349 49.92H143.729L143.409 51.94ZM142.909 55.03H144.809C145.269 55.03 145.612 54.9267 145.839 54.72C146.072 54.5134 146.189 54.2167 146.189 53.83C146.189 53.5234 146.085 53.2934 145.879 53.14C145.679 52.9867 145.385 52.91 144.999 52.91H143.249L142.909 55.03Z" fill="#0F2D79"/>
<path d="M150.776 56.17L150.236 55.21C150.516 55.07 150.769 54.9067 150.996 54.72C151.229 54.5334 151.436 54.2967 151.616 54.01C151.796 53.7167 151.956 53.3467 152.096 52.9C152.236 52.4534 152.359 51.9 152.466 51.24L152.836 48.95H157.816L156.696 56H155.416L156.366 50.02H153.846L153.596 51.57C153.449 52.4767 153.253 53.23 153.006 53.83C152.766 54.43 152.463 54.9134 152.096 55.28C151.729 55.6467 151.289 55.9434 150.776 56.17Z" fill="#0F2D79"/>
<path d="M160.635 56L161.755 48.95H162.945L162.175 53.82L166.735 48.95H167.695L166.575 56H165.385L166.155 51.11L161.585 56H160.635Z" fill="#0F2D79"/>
<path d="M175.611 56L176.731 48.95H177.921L177.151 53.82L181.711 48.95H182.671L181.551 56H180.361L181.131 51.11L176.561 56H175.611Z" fill="#0F2D79"/>
<path d="M193.567 56.25L193.697 55.44C193.144 55.4067 192.657 55.28 192.237 55.06C191.817 54.8334 191.49 54.53 191.257 54.15C191.03 53.7634 190.917 53.3067 190.917 52.78C190.917 52.3334 190.997 51.9067 191.157 51.5C191.317 51.0934 191.55 50.7334 191.857 50.42C192.17 50.1 192.554 49.85 193.007 49.67C193.467 49.4834 193.997 49.39 194.597 49.39H194.647L194.767 48.65H196.047L195.927 49.43C196.48 49.4634 196.967 49.5934 197.387 49.82C197.807 50.04 198.13 50.3434 198.357 50.73C198.59 51.11 198.707 51.5634 198.707 52.09C198.707 52.5367 198.627 52.9634 198.467 53.37C198.314 53.7767 198.08 54.14 197.767 54.46C197.454 54.7734 197.067 55.0234 196.607 55.21C196.154 55.39 195.627 55.48 195.027 55.48H194.967L194.847 56.25H193.567ZM192.227 52.75C192.227 53.2634 192.36 53.6667 192.627 53.96C192.894 54.2534 193.304 54.42 193.857 54.46L194.507 50.37C194 50.37 193.577 50.4834 193.237 50.71C192.897 50.9367 192.644 51.23 192.477 51.59C192.31 51.95 192.227 52.3367 192.227 52.75ZM197.397 52.12C197.397 51.6 197.264 51.1934 196.997 50.9C196.73 50.6067 196.317 50.4434 195.757 50.41L195.107 54.5H195.117C195.624 54.5 196.044 54.39 196.377 54.17C196.717 53.9434 196.97 53.65 197.137 53.29C197.31 52.9234 197.397 52.5334 197.397 52.12Z" fill="#0F2D79"/>
<path d="M201.075 56L205.395 48.95H206.445L208.505 56H207.275L206.845 54.37H203.395L202.435 56H201.075ZM205.755 50.34L203.985 53.35H206.565L205.775 50.34H205.755Z" fill="#0F2D79"/>
<path d="M214.982 56.1C214.362 56.1 213.808 55.9834 213.322 55.75C212.842 55.51 212.462 55.1534 212.182 54.68C211.908 54.2067 211.772 53.6134 211.772 52.9C211.772 52.3267 211.855 51.7967 212.022 51.31C212.195 50.8167 212.442 50.3867 212.762 50.02C213.088 49.6534 213.488 49.3667 213.962 49.16C214.435 48.9534 214.972 48.85 215.572 48.85C216.058 48.85 216.508 48.9267 216.922 49.08C217.335 49.2334 217.665 49.4367 217.912 49.69L217.392 50.71C216.865 50.23 216.248 49.99 215.542 49.99C215.028 49.99 214.592 50.1167 214.232 50.37C213.872 50.6167 213.598 50.9567 213.412 51.39C213.225 51.8234 213.132 52.3134 213.132 52.86C213.132 53.6 213.302 54.1367 213.642 54.47C213.982 54.7967 214.475 54.96 215.122 54.96C215.435 54.96 215.742 54.9067 216.042 54.8C216.342 54.6934 216.648 54.52 216.962 54.28L217.332 55.29C217.038 55.55 216.682 55.75 216.262 55.89C215.842 56.03 215.415 56.1 214.982 56.1Z" fill="#0F2D79"/>
<path d="M219.722 56L224.042 48.95H225.092L227.152 56H225.922L225.492 54.37H222.042L221.082 56H219.722ZM224.402 50.34L222.632 53.35H225.212L224.422 50.34H224.402Z" fill="#0F2D79"/>
<path d="M229.434 57.65L229.854 54.98H230.564C230.944 54.5934 231.26 54.0634 231.514 53.39C231.774 52.7167 231.987 51.8667 232.154 50.84L232.454 48.95H237.444L236.484 54.98H237.484L237.054 57.65H235.924L236.184 56H230.834L230.574 57.65H229.434ZM231.924 54.98H235.204L236.004 49.97H233.484L233.334 50.91C233.18 51.89 232.994 52.7167 232.774 53.39C232.56 54.0567 232.277 54.5867 231.924 54.98Z" fill="#0F2D79"/>
<path d="M239.952 56L244.272 48.95H245.322L247.382 56H246.152L245.722 54.37H242.272L241.312 56H239.952ZM244.632 50.34L242.862 53.35H245.442L244.652 50.34H244.632Z" fill="#0F2D79"/>
</svg>
