<svg width="263" height="65" viewBox="0 0 263 65" fill="none" xmlns="http://www.w3.org/2000/svg"><path d="M9.174 37.536l.446-2.866c-2.909-.254-5.245-1.174-7.009-2.763C.871 30.296 0 28.11 0 25.347c0-2.119.47-4.052 1.409-5.802.962-1.772 2.393-3.188 4.294-4.247 1.924-1.059 4.33-1.588 7.216-1.588l.412-2.625h6.322l-.447 2.832c2.91.253 5.234 1.174 6.975 2.762 1.764 1.589 2.645 3.776 2.645 6.561 0 2.118-.48 4.063-1.443 5.836-.939 1.75-2.37 3.154-4.294 4.212-1.902 1.06-4.307 1.589-7.216 1.589l-.412 2.659H9.174zM6.39 25.139c0 1.428.286 2.556.859 3.384.572.806 1.626 1.29 3.16 1.45l1.822-11.602c-1.42.07-2.554.426-3.402 1.07a5.35 5.35 0 00-1.855 2.452c-.39.99-.584 2.072-.584 3.246zm16.045-1.692c0-1.45-.287-2.578-.86-3.384-.572-.828-1.625-1.323-3.16-1.485L16.56 30.215c1.42-.069 2.553-.414 3.401-1.036a5.508 5.508 0 001.89-2.451c.39-1.013.584-2.107.584-3.28zm8.235 13.122l3.847-24.344h5.876l-2.13 13.708L51.49 12.225h4.639L52.28 36.569h-5.84l2.164-13.778L35.308 36.57h-4.639zm26.036 0l3.848-24.344h6.322L65.4 21.617h9.964l1.511-9.392h6.288l-3.848 24.344h-6.288l1.512-9.738h-9.964l-1.546 9.738h-6.322zm96.976.38c-2.245 0-4.261-.415-6.047-1.243a9.918 9.918 0 01-4.192-3.764c-1.008-1.68-1.512-3.741-1.512-6.181 0-1.957.298-3.776.893-5.456.596-1.68 1.466-3.154 2.612-4.42 1.168-1.266 2.599-2.256 4.294-2.97 1.718-.713 3.688-1.07 5.91-1.07 1.649 0 3.207.253 4.673.76 1.466.483 2.622 1.116 3.47 1.899l-2.371 4.972c-1.855-1.404-3.825-2.106-5.909-2.106-1.535 0-2.818.368-3.849 1.105-1.007.713-1.775 1.692-2.302 2.935-.503 1.22-.755 2.59-.755 4.11 0 2.025.469 3.521 1.408 4.488.939.944 2.417 1.416 4.432 1.416.894 0 1.821-.15 2.783-.45.962-.298 1.97-.793 3.024-1.484l1.58 5.007c-.641.507-1.42.944-2.336 1.312-.916.369-1.878.645-2.886.829-1.008.207-1.981.31-2.92.31zm15.899-.38l3.024-19.165h-7.697l.825-5.18h21.714l-.824 5.18h-7.697l-3.023 19.165h-6.322zm16.408 0l3.848-24.344h10.239c2.932 0 5.119.633 6.562 1.899 1.466 1.243 2.199 2.958 2.199 5.145 0 2.855-.87 5.053-2.611 6.595-1.718 1.543-4.215 2.314-7.49 2.314h-5.085l-1.34 8.39h-6.322zm8.418-13.26h4.569c2.566 0 3.848-1.162 3.848-3.488 0-1.818-1.202-2.727-3.607-2.727h-3.848l-.962 6.215zm27.212 13.64c-2.314 0-4.329-.426-6.047-1.278-1.718-.875-3.058-2.118-4.02-3.73-.939-1.634-1.409-3.602-1.409-5.904 0-2.808.55-5.272 1.649-7.39 1.1-2.14 2.634-3.81 4.604-5.006 1.993-1.197 4.295-1.796 6.906-1.796 2.314 0 4.329.437 6.047 1.312 1.718.852 3.047 2.095 3.986 3.73.962 1.61 1.443 3.556 1.443 5.835 0 2.832-.55 5.318-1.649 7.459-1.1 2.118-2.635 3.775-4.604 4.972-1.97 1.197-4.272 1.796-6.906 1.796zm.068-5.318c1.375 0 2.543-.368 3.505-1.105.985-.737 1.741-1.761 2.268-3.073.526-1.335.79-2.866.79-4.593 0-1.933-.458-3.36-1.375-4.282-.893-.943-2.118-1.415-3.676-1.415-1.351 0-2.519.368-3.504 1.105-.962.736-1.707 1.772-2.234 3.107-.504 1.313-.756 2.832-.756 4.558 0 1.934.447 3.373 1.34 4.317.894.92 2.108 1.381 3.642 1.381zm14.899 4.938l3.849-24.344h5.875l-2.13 13.708 13.227-13.708h4.639l-3.848 24.344h-5.841l2.164-13.778-13.296 13.778h-4.639zm14.706-26.243c-1.466 0-2.669-.23-3.608-.691-.939-.46-1.672-1.082-2.199-1.865a6.571 6.571 0 01-1.031-2.624l2.955-.932c.321 1.059.802 1.818 1.443 2.279.642.46 1.535.69 2.68.69 1.168 0 2.107-.253 2.818-.76.732-.529 1.305-1.254 1.717-2.175l2.68.898c-.435 1.542-1.305 2.797-2.611 3.764-1.305.944-2.92 1.416-4.844 1.416z" fill="#0F2D79"/><path d="M112.686 2.038c-11.794 0-21.355 9.62-21.355 21.488 0 4.277 1.243 8.263 3.384 11.611.085.133.27.151.38.04l17.415-17.595a.247.247 0 01.352 0l7.988 8.067 2.498 2.524 1.505 1.525 5.423 5.478c.11.112.296.094.381-.039a21.485 21.485 0 003.383-11.611c0-11.868-9.56-21.488-21.354-21.488z" fill="#FF6433"/><path d="M94.952 35.528c3.85 5.693 10.355 9.434 17.734 9.434 7.378 0 13.884-3.741 17.733-9.434a.249.249 0 00-.03-.313l-5.508-5.542-1.508-1.522-2.504-2.52-8.007-8.053a.249.249 0 00-.353 0L94.983 35.215a.248.248 0 00-.03.313z" fill="#fff"/><path fill-rule="evenodd" clip-rule="evenodd" d="M112.686 4c-10.716 0-19.403 8.73-19.403 19.5 0 3.094.716 6.017 1.99 8.613l17.412-17.572 6.19 6.243v-3.909h6.482v10.45l.928.94 3.813 3.848a19.496 19.496 0 001.99-8.613c0-10.77-8.687-19.5-19.402-19.5zm15.231 31.58l-4.454-4.495-10.777-10.876L97.454 35.58c3.556 4.523 9.058 7.42 15.232 7.42 6.174 0 11.675-2.897 15.231-7.42zM89.303 23.5c0-12.979 10.469-23.5 23.383-23.5s23.382 10.521 23.382 23.5c0 4.795-1.431 9.26-3.888 12.981C127.996 42.816 120.827 47 112.686 47c-8.142 0-15.31-4.184-19.494-10.519A23.483 23.483 0 0189.303 23.5z" fill="#0F2D79"/><path d="M15.44 56.17l-.54-.96c.28-.14.533-.303.76-.49.233-.187.44-.423.62-.71.18-.293.34-.663.48-1.11.14-.447.263-1 .37-1.66l.37-2.29h4.98L21.36 56h-1.28l.95-5.98h-2.52l-.25 1.55c-.147.907-.343 1.66-.59 2.26-.24.6-.543 1.083-.91 1.45a4.3 4.3 0 01-1.32.89zM26.28 56l1.46-2.2-2.23-4.85h1.3l1.68 3.74 2.5-3.74h1.39L27.67 56h-1.39zm12.171 0l.43-2.75a3.22 3.22 0 01-.71.21c-.273.053-.55.08-.83.08-.573 0-1.057-.117-1.45-.35a1.98 1.98 0 01-.84-1.03c-.167-.453-.2-.997-.1-1.63l.25-1.58h1.28l-.25 1.57c-.107.667-.05 1.153.17 1.46.227.307.623.46 1.19.46.24 0 .49-.023.75-.07.26-.053.5-.133.72-.24l.51-3.18h1.28L39.731 56h-1.28zm5.223 0l1.12-7.05h1.26l-.95 5.98h2.69l.95-5.98h1.26l-.95 5.98h2.69l.95-5.98h1.26L52.834 56h-9.16zm13.113 0l1.11-7.05h4.69l-.16 1.02h-3.46l-.31 1.94h3.25l-.16 1.02h-3.25l-.33 2.05h3.46l-.16 1.02h-4.68zm8.367 0l1.11-7.05h4.69l-.16 1.02h-3.46l-.31 1.94h3.25l-.16 1.02h-3.25l-.33 2.05h3.46l-.16 1.02h-4.68zm12.562 1.65l.42-2.67h.71c.38-.387.696-.917.95-1.59.26-.673.473-1.523.64-2.55l.3-1.89h4.99l-.96 6.03h1l-.43 2.67h-1.13l.26-1.65h-5.35l-.26 1.65h-1.14zm2.49-2.67h3.28l.8-5.01h-2.52l-.15.94c-.154.98-.34 1.807-.56 2.48-.214.667-.497 1.197-.85 1.59zm8.848 1.19l-.54-.96c.28-.14.533-.303.76-.49.233-.187.44-.423.62-.71.18-.293.34-.663.48-1.11.14-.447.263-1 .37-1.66l.37-2.29h4.98L94.974 56h-1.28l.95-5.98h-2.52l-.25 1.55c-.147.907-.343 1.66-.59 2.26-.24.6-.543 1.083-.91 1.45a4.3 4.3 0 01-1.32.89zm9.39-.17l1.5-2.17c.16-.227.316-.403.469-.53.154-.133.327-.223.52-.27-.46-.127-.81-.347-1.05-.66-.233-.313-.35-.703-.35-1.17 0-.513.117-.937.35-1.27.234-.333.55-.58.95-.74a3.72 3.72 0 011.37-.24h3.18l-1.12 7.05h-1.28l.45-2.82h-.87a1.5 1.5 0 00-.63.12c-.173.08-.336.23-.49.45L99.893 56h-1.45zm3.659-3.77h1.48l.36-2.27h-1.74c-.453 0-.806.107-1.06.32-.246.207-.37.51-.37.91 0 .347.107.607.32.78.214.173.55.26 1.01.26zm11.2 3.77l1.12-7.05h1.28l-.48 2.99h.98l2.37-2.99h1.43l-2.6 3.26c.22.12.407.287.56.5.16.213.294.473.4.78l.89 2.51h-1.31l-.69-2.03c-.113-.347-.27-.593-.47-.74-.2-.147-.466-.22-.8-.22h-.92l-.48 2.99h-1.28zm9.148 0l1.12-7.05h2.74c.78 0 1.374.17 1.78.51.407.333.61.817.61 1.45 0 .767-.236 1.367-.71 1.8-.473.433-1.16.65-2.06.65h-1.78l-.42 2.64h-1.28zm1.86-3.65h1.68c.48 0 .844-.113 1.09-.34.254-.233.38-.567.38-1 0-.7-.433-1.05-1.3-1.05h-1.47l-.38 2.39zm10.396 3.75c-.626 0-1.173-.12-1.64-.36a2.59 2.59 0 01-1.09-1.05c-.253-.467-.38-1.027-.38-1.68 0-.807.147-1.52.44-2.14.3-.627.727-1.12 1.28-1.48.554-.36 1.21-.54 1.97-.54.634 0 1.18.12 1.64.36.467.24.827.59 1.08 1.05.26.46.39 1.017.39 1.67 0 .807-.15 1.523-.45 2.15a3.48 3.48 0 01-1.27 1.48c-.546.36-1.203.54-1.97.54zm.02-1.1c.5 0 .924-.13 1.27-.39.347-.267.61-.63.79-1.09.18-.46.27-.983.27-1.57 0-.673-.16-1.173-.48-1.5-.32-.333-.76-.5-1.32-.5-.493 0-.913.13-1.26.39-.346.26-.61.62-.79 1.08-.18.453-.27.977-.27 1.57 0 .68.16 1.187.48 1.52.32.327.757.49 1.31.49zm6.802 1l1.12-7.05h2.9c.78 0 1.343.157 1.69.47.353.307.53.707.53 1.2 0 .453-.13.837-.39 1.15a1.98 1.98 0 01-1.02.64c.34.12.603.31.79.57.186.26.28.567.28.92 0 .687-.227 1.21-.68 1.57-.454.353-1.08.53-1.88.53h-3.34zm1.88-4.06h1.71c.446 0 .793-.1 1.04-.3.246-.2.37-.49.37-.87 0-.273-.097-.483-.29-.63-.187-.147-.484-.22-.89-.22h-1.62l-.32 2.02zm-.5 3.09h1.9c.46 0 .803-.103 1.03-.31.233-.207.35-.503.35-.89 0-.307-.104-.537-.31-.69-.2-.153-.494-.23-.88-.23h-1.75l-.34 2.12zm7.867 1.14l-.54-.96c.28-.14.533-.303.76-.49.233-.187.44-.423.62-.71.18-.293.34-.663.48-1.11.14-.447.263-1 .37-1.66l.37-2.29h4.98l-1.12 7.05h-1.28l.95-5.98h-2.52l-.25 1.55c-.147.907-.343 1.66-.59 2.26-.24.6-.543 1.083-.91 1.45a4.307 4.307 0 01-1.32.89zm9.859-.17l1.12-7.05h1.19l-.77 4.87 4.56-4.87h.96l-1.12 7.05h-1.19l.77-4.89-4.57 4.89h-.95zm14.976 0l1.12-7.05h1.19l-.77 4.87 4.56-4.87h.96l-1.12 7.05h-1.19l.77-4.89-4.57 4.89h-.95zm17.956.25l.13-.81c-.553-.033-1.04-.16-1.46-.38a2.532 2.532 0 01-.98-.91c-.227-.387-.34-.843-.34-1.37 0-.447.08-.873.24-1.28a3.197 3.197 0 011.85-1.83c.46-.187.99-.28 1.59-.28h.05l.12-.74h1.28l-.12.78c.553.033 1.04.163 1.46.39.42.22.743.523.97.91.233.38.35.833.35 1.36 0 .447-.08.873-.24 1.28-.153.407-.387.77-.7 1.09-.313.313-.7.563-1.16.75-.453.18-.98.27-1.58.27h-.06l-.12.77h-1.28zm-1.34-3.5c0 .513.133.917.4 1.21.267.293.677.46 1.23.5l.65-4.09c-.507 0-.93.113-1.27.34a2.11 2.11 0 00-.76.88c-.167.36-.25.747-.25 1.16zm5.17-.63c0-.52-.133-.927-.4-1.22-.267-.293-.68-.457-1.24-.49l-.65 4.09h.01c.507 0 .927-.11 1.26-.33.34-.227.593-.52.76-.88a2.71 2.71 0 00.26-1.17zm3.678 3.88l4.32-7.05h1.05l2.06 7.05h-1.23l-.43-1.63h-3.45l-.96 1.63h-1.36zm4.68-5.66l-1.77 3.01h2.58l-.79-3.01h-.02zm9.227 5.76c-.62 0-1.174-.117-1.66-.35-.48-.24-.86-.597-1.14-1.07-.274-.473-.41-1.067-.41-1.78 0-.573.083-1.103.25-1.59a3.91 3.91 0 01.74-1.29 3.4 3.4 0 011.2-.86c.473-.207 1.01-.31 1.61-.31.486 0 .936.077 1.35.23.413.153.743.357.99.61l-.52 1.02a2.66 2.66 0 00-1.85-.72c-.514 0-.95.127-1.31.38a2.31 2.31 0 00-.82 1.02c-.187.433-.28.923-.28 1.47 0 .74.17 1.277.51 1.61.34.327.833.49 1.48.49.313 0 .62-.053.92-.16.3-.107.606-.28.92-.52l.37 1.01c-.294.26-.65.46-1.07.6-.42.14-.847.21-1.28.21zm4.74-.1l4.32-7.05h1.05l2.06 7.05h-1.23l-.43-1.63h-3.45l-.96 1.63h-1.36zm4.68-5.66l-1.77 3.01h2.58l-.79-3.01h-.02zm5.032 7.31l.42-2.67h.71c.38-.387.696-.917.95-1.59.26-.673.473-1.523.64-2.55l.3-1.89h4.99l-.96 6.03h1l-.43 2.67h-1.13l.26-1.65h-5.35l-.26 1.65h-1.14zm2.49-2.67h3.28l.8-5.01h-2.52l-.15.94c-.154.98-.34 1.807-.56 2.48-.214.667-.497 1.197-.85 1.59zm8.028 1.02l4.32-7.05h1.05l2.06 7.05h-1.23l-.43-1.63h-3.45l-.96 1.63h-1.36zm4.68-5.66l-1.77 3.01h2.58l-.79-3.01h-.02z" fill="#0F2D79"/></svg>