<svg width="283" height="283" viewBox="0 0 283 283" fill="none" xmlns="http://www.w3.org/2000/svg">
<g filter="url(#filter0_d)">
<circle cx="141.5" cy="141.5" r="93.5" fill="#AAEB46"/>
</g>
<path fill-rule="evenodd" clip-rule="evenodd" d="M145.969 114.608L128.4 82.0002L46.4116 91.9979L70.1452 126.144L145.969 114.608Z" fill="#265DEB"/>
<path fill-rule="evenodd" clip-rule="evenodd" d="M46.4117 91.9978L45.6411 93.5359L70.1453 126.144L71.9947 125.836L46.4117 91.9978Z" fill="url(#paint0_radial)"/>
<path fill-rule="evenodd" clip-rule="evenodd" d="M70.145 126.144L77.0802 184.13C77.0802 184.13 103.588 197.819 140.575 211.047V141.371L70.145 126.144Z" fill="#265DEB"/>
<path fill-rule="evenodd" clip-rule="evenodd" d="M140.575 141.371L214.088 123.375L205.457 184.745C205.457 184.745 188.967 198.896 140.575 211.354V141.371Z" fill="#0F2D79"/>
<path fill-rule="evenodd" clip-rule="evenodd" d="M70.145 126.144L145.969 114.608L214.088 123.375L140.575 141.371L70.145 126.144Z" fill="url(#paint1_radial)"/>
<path fill-rule="evenodd" clip-rule="evenodd" d="M77.3882 125.836L140.575 139.525L203.916 123.375L146.894 115.377L77.3882 125.836Z" fill="url(#paint2_radial)"/>
<path fill-rule="evenodd" clip-rule="evenodd" d="M140.575 141.371L108.057 119.068C108.057 119.068 54.8877 114.147 31 105.226L70.145 126.144L140.575 141.371Z" fill="url(#paint3_linear)"/>
<path fill-rule="evenodd" clip-rule="evenodd" d="M31 105.226L31.6165 103.688C31.6165 103.688 59.2029 114.454 108.982 116.3L108.057 119.068C108.057 119.068 59.8194 115.223 31 105.226Z" fill="url(#paint4_radial)"/>
<path fill-rule="evenodd" clip-rule="evenodd" d="M108.982 116.454L140.575 139.525V141.371L108.057 119.068L108.982 116.454Z" fill="#0C3BB3"/>
<path fill-rule="evenodd" clip-rule="evenodd" d="M145.969 114.608C145.969 114.608 151.209 104.303 159.685 85.9995H238.383L214.033 123.375L145.969 114.608Z" fill="url(#paint5_radial)"/>
<path fill-rule="evenodd" clip-rule="evenodd" d="M238.383 85.9912L239.671 88.1526L213.625 126.144L214.033 123.367L238.383 85.9912Z" fill="url(#paint6_linear)"/>
<path fill-rule="evenodd" clip-rule="evenodd" d="M214.088 123.375L140.576 141.371L164.772 151.984C164.772 151.984 200.218 151.215 213.318 146.139C226.417 141.063 252 126.451 252 126.451L214.088 123.375Z" fill="#265DEB"/>
<path fill-rule="evenodd" clip-rule="evenodd" d="M252 126.451L251.075 128.912C251.075 128.912 231.195 141.371 212.547 147.985C193.591 154.599 164.617 154.906 164.617 154.906V152.138C164.617 152.138 196.872 151.417 212.9 146.034C223.688 142.342 252 126.451 252 126.451Z" fill="url(#paint7_radial)"/>
<path fill-rule="evenodd" clip-rule="evenodd" d="M140.575 140.448V142.294L164.771 154.753V151.83L140.575 140.448Z" fill="#0C3BB3"/>
<path opacity="0.75" fill-rule="evenodd" clip-rule="evenodd" d="M106 193.762V173L136.919 182.715L135.583 203.477L106 193.762Z" fill="#F5F6FA"/>
<g opacity="0.5">
<path d="M133.483 201.572L108.29 193.19V175.095L134.628 183.286L133.483 201.572ZM109.244 192.429L132.72 200.238L133.674 184.047L109.244 176.428V192.429Z" fill="#0F2D79"/>
</g>
<path fill-rule="evenodd" clip-rule="evenodd" d="M112.68 179.477L128.903 184.619V187.286L112.68 182.143V179.477Z" fill="#0F2D79"/>
<path fill-rule="evenodd" clip-rule="evenodd" d="M112.68 184.619L128.903 189.762V191.096L112.68 186.143V184.619Z" fill="#0F2D79"/>
<path opacity="0.36" d="M31 105.225C31 105.225 67.5251 117.992 108.057 119.068L139.496 140.602L140.575 141.371V142.447V168.749L71.3779 137.064L70.145 126.297L31 105.225Z" fill="#0F2D79"/>
<path opacity="0.58" d="M146.894 115.377V137.68L203.916 123.375L146.894 115.377Z" fill="#0F2D79"/>
<mask id="mask0" style="mask-type:alpha" maskUnits="userSpaceOnUse" x="109" y="63" width="77" height="77">
<path d="M140.934 139.8L109.2 116.567V63.3003H185.133V127.9L140.934 139.8Z" fill="#C4C4C4"/>
</mask>
<g mask="url(#mask0)">
<path fill-rule="evenodd" clip-rule="evenodd" d="M150.567 65.0005V124.945L163.583 111.872L171.614 119.869L148.916 142.665C147.853 143.733 146.408 144.334 144.9 144.334C143.393 144.334 141.948 143.733 140.885 142.665L118.187 119.869L126.218 111.872L139.234 124.945V65.0005H150.567Z" fill="url(#paint8_linear)" stroke="url(#paint9_linear)" stroke-width="0.25" stroke-linecap="square" stroke-linejoin="round"/>
</g>
<defs>
<filter id="filter0_d" x="0" y="0.000244141" width="283" height="283" filterUnits="userSpaceOnUse" color-interpolation-filters="sRGB">
<feFlood flood-opacity="0" result="BackgroundImageFix"/>
<feColorMatrix in="SourceAlpha" type="matrix" values="0 0 0 0 0 0 0 0 0 0 0 0 0 0 0 0 0 0 127 0" result="hardAlpha"/>
<feOffset/>
<feGaussianBlur stdDeviation="24"/>
<feColorMatrix type="matrix" values="0 0 0 0 0.666667 0 0 0 0 0.921569 0 0 0 0 0.27451 0 0 0 1 0"/>
<feBlend mode="normal" in2="BackgroundImageFix" result="effect1_dropShadow"/>
<feBlend mode="normal" in="SourceGraphic" in2="effect1_dropShadow" result="shape"/>
</filter>
<radialGradient id="paint0_radial" cx="0" cy="0" r="1" gradientUnits="userSpaceOnUse" gradientTransform="translate(59.3335 114.3) rotate(-113.806) scale(21.0583 21.0167)">
<stop stop-color="#AAEB46"/>
<stop offset="0.9777" stop-color="#265DEB"/>
</radialGradient>
<radialGradient id="paint1_radial" cx="0" cy="0" r="1" gradientUnits="userSpaceOnUse" gradientTransform="translate(127.9 126.2) rotate(-2.15296) scale(75.4199 75.2707)">
<stop stop-color="#0F2D79"/>
<stop offset="1" stop-color="#265DEB"/>
</radialGradient>
<radialGradient id="paint2_radial" cx="0" cy="0" r="1" gradientUnits="userSpaceOnUse" gradientTransform="translate(144.333 141.5) rotate(-85.1355) scale(26.7296 63.3094)">
<stop offset="0.0223464" stop-color="#265DEB"/>
<stop offset="1" stop-color="#0F2D79"/>
</radialGradient>
<linearGradient id="paint3_linear" x1="87.6666" y1="116.001" x2="82" y2="140.934" gradientUnits="userSpaceOnUse">
<stop stop-color="#AAEB46"/>
<stop offset="1" stop-color="#0F2D79"/>
</linearGradient>
<radialGradient id="paint4_radial" cx="0" cy="0" r="1" gradientUnits="userSpaceOnUse" gradientTransform="translate(70.1985 104.641) scale(22.7934 22.7483)">
<stop stop-color="#265DEB"/>
<stop offset="0.0260417" stop-color="#5C87F6"/>
<stop offset="1" stop-color="#265DEB"/>
</radialGradient>
<radialGradient id="paint5_radial" cx="0" cy="0" r="1" gradientUnits="userSpaceOnUse" gradientTransform="translate(238.4 86.5335) rotate(154.799) scale(53.2335 53.1282)">
<stop stop-color="#AAEB46"/>
<stop offset="0.9777" stop-color="#265DEB"/>
</radialGradient>
<linearGradient id="paint6_linear" x1="226.648" y1="85.9912" x2="226.648" y2="126.144" gradientUnits="userSpaceOnUse">
<stop stop-color="#0F2D79"/>
<stop offset="1" stop-color="#AAEB46"/>
</linearGradient>
<radialGradient id="paint7_radial" cx="0" cy="0" r="1" gradientUnits="userSpaceOnUse" gradientTransform="translate(219.7 157.933) rotate(-121.849) scale(44.0289 43.9418)">
<stop offset="0.0223464" stop-color="#AAEB46"/>
<stop offset="1" stop-color="#093CBF"/>
</radialGradient>
<linearGradient id="paint8_linear" x1="144.334" y1="100.134" x2="144.338" y2="143.767" gradientUnits="userSpaceOnUse">
<stop stop-color="#F5F6FA"/>
<stop offset="0.791667" stop-color="#8D9DC5"/>
</linearGradient>
<linearGradient id="paint9_linear" x1="145.467" y1="130.167" x2="145.467" y2="68.9672" gradientUnits="userSpaceOnUse">
<stop stop-color="white"/>
<stop offset="1" stop-color="#E5E9F3"/>
</linearGradient>
</defs>
</svg>
