<svg width="283" height="283" viewBox="0 0 283 283" fill="none" xmlns="http://www.w3.org/2000/svg"><g filter="url(#filter0_d)"><circle cx="141.5" cy="141.5" r="93.5" fill="#AAEB46"/></g><path fill-rule="evenodd" clip-rule="evenodd" d="M145.969 114.608L128.4 82l-81.988 9.998 23.733 34.146 75.824-11.536z" fill="#265DEB"/><path fill-rule="evenodd" clip-rule="evenodd" d="M46.412 91.998l-.77 1.538 24.503 32.608 1.85-.308-25.583-33.838z" fill="url(#paint0_radial)"/><path fill-rule="evenodd" clip-rule="evenodd" d="M70.145 126.144l6.935 57.986s26.508 13.689 63.495 26.917v-69.676l-70.43-15.227z" fill="#265DEB"/><path fill-rule="evenodd" clip-rule="evenodd" d="M140.575 141.371l73.513-17.996-8.631 61.37s-16.49 14.151-64.882 26.609v-69.983z" fill="#0F2D79"/><path fill-rule="evenodd" clip-rule="evenodd" d="M70.145 126.144l75.824-11.536 68.119 8.767-73.513 17.996-70.43-15.227z" fill="url(#paint1_radial)"/><path fill-rule="evenodd" clip-rule="evenodd" d="M77.388 125.836l63.187 13.689 63.341-16.15-57.022-7.998-69.506 10.459z" fill="url(#paint2_radial)"/><path fill-rule="evenodd" clip-rule="evenodd" d="M140.575 141.371l-32.518-22.303S54.887 114.147 31 105.226l39.145 20.918 70.43 15.227z" fill="url(#paint3_linear)"/><path fill-rule="evenodd" clip-rule="evenodd" d="M31 105.226l.616-1.538s27.587 10.766 77.366 12.612l-.925 2.768S59.819 115.223 31 105.226z" fill="url(#paint4_radial)"/><path fill-rule="evenodd" clip-rule="evenodd" d="M108.982 116.454l31.593 23.071v1.846l-32.518-22.303.925-2.614z" fill="#0C3BB3"/><path fill-rule="evenodd" clip-rule="evenodd" d="M145.969 114.608s5.24-10.305 13.716-28.609h78.698l-24.35 37.376-68.064-8.767z" fill="url(#paint5_radial)"/><path fill-rule="evenodd" clip-rule="evenodd" d="M238.383 85.991l1.288 2.162-26.046 37.991.408-2.777 24.35-37.376z" fill="url(#paint6_linear)"/><path fill-rule="evenodd" clip-rule="evenodd" d="M214.088 123.375l-73.512 17.996 24.196 10.613s35.446-.769 48.546-5.845C226.417 141.063 252 126.451 252 126.451l-37.912-3.076z" fill="#265DEB"/><path fill-rule="evenodd" clip-rule="evenodd" d="M252 126.451l-.925 2.461s-19.88 12.459-38.528 19.073c-18.956 6.614-47.93 6.921-47.93 6.921v-2.768s32.255-.721 48.283-6.104c10.788-3.692 39.1-19.583 39.1-19.583z" fill="url(#paint7_radial)"/><path fill-rule="evenodd" clip-rule="evenodd" d="M140.575 140.448v1.846l24.196 12.459v-2.923l-24.196-11.382z" fill="#0C3BB3"/><path opacity=".75" fill-rule="evenodd" clip-rule="evenodd" d="M106 193.762V173l30.919 9.715-1.336 20.762L106 193.762z" fill="#F5F6FA"/><path d="M133.483 201.572l-25.193-8.382v-18.095l26.338 8.191-1.145 18.286zm-24.239-9.143l23.476 7.809.954-16.191-24.43-7.619v16.001z" fill="#0F2D79" opacity=".5"/><path fill-rule="evenodd" clip-rule="evenodd" d="M112.68 179.477l16.223 5.142v2.667l-16.223-5.143v-2.666zm0 5.142l16.223 5.143v1.334l-16.223-4.953v-1.524z" fill="#0F2D79"/><path opacity=".36" d="M31 105.225s36.525 12.767 77.057 13.843l31.439 21.534 1.079.769v27.378l-69.197-31.685-1.233-10.767L31 105.225z" fill="#0F2D79"/><path opacity=".58" d="M146.894 115.377v22.303l57.022-14.305-57.022-7.998z" fill="#0F2D79"/><mask id="mask0" style="mask-type:alpha" maskUnits="userSpaceOnUse" x="109" y="63" width="77" height="77"><path d="M140.934 139.8L109.2 116.567V63.3h75.933v64.6l-44.199 11.9z" fill="#C4C4C4"/></mask><g mask="url(#mask0)"><path fill-rule="evenodd" clip-rule="evenodd" d="M150.567 65v59.945l13.016-13.073 8.031 7.997-22.698 22.796a5.666 5.666 0 01-8.031 0l-22.698-22.796 8.031-7.997 13.016 13.073V65.001h11.333z" fill="url(#paint8_linear)" stroke="url(#paint9_linear)" stroke-width=".25" stroke-linecap="square" stroke-linejoin="round"/></g><defs><radialGradient id="paint0_radial" cx="0" cy="0" r="1" gradientUnits="userSpaceOnUse" gradientTransform="matrix(-8.5 -19.2666 19.22854 -8.4832 59.334 114.3)"><stop stop-color="#AAEB46"/><stop offset=".978" stop-color="#265DEB"/></radialGradient><radialGradient id="paint1_radial" cx="0" cy="0" r="1" gradientUnits="userSpaceOnUse" gradientTransform="matrix(75.36666 -2.83333 2.82772 75.21757 127.9 126.2)"><stop stop-color="#0F2D79"/><stop offset="1" stop-color="#265DEB"/></radialGradient><radialGradient id="paint2_radial" cx="0" cy="0" r="1" gradientUnits="userSpaceOnUse" gradientTransform="matrix(2.2669 -26.6333 63.08131 5.36916 144.333 141.5)"><stop offset=".022" stop-color="#265DEB"/><stop offset="1" stop-color="#0F2D79"/></radialGradient><radialGradient id="paint4_radial" cx="0" cy="0" r="1" gradientUnits="userSpaceOnUse" gradientTransform="matrix(22.7934 0 0 22.7483 70.198 104.641)"><stop stop-color="#265DEB"/><stop offset=".026" stop-color="#5C87F6"/><stop offset="1" stop-color="#265DEB"/></radialGradient><radialGradient id="paint5_radial" cx="0" cy="0" r="1" gradientUnits="userSpaceOnUse" gradientTransform="matrix(-48.16672 22.66656 -22.62173 -48.07144 238.4 86.534)"><stop stop-color="#AAEB46"/><stop offset=".978" stop-color="#265DEB"/></radialGradient><radialGradient id="paint7_radial" cx="0" cy="0" r="1" gradientUnits="userSpaceOnUse" gradientTransform="rotate(-121.849 153.758 17.886) scale(44.0289 43.9418)"><stop offset=".022" stop-color="#AAEB46"/><stop offset="1" stop-color="#093CBF"/></radialGradient><linearGradient id="paint3_linear" x1="87.667" y1="116.001" x2="82" y2="140.934" gradientUnits="userSpaceOnUse"><stop stop-color="#AAEB46"/><stop offset="1" stop-color="#0F2D79"/></linearGradient><linearGradient id="paint6_linear" x1="226.648" y1="85.991" x2="226.648" y2="126.144" gradientUnits="userSpaceOnUse"><stop stop-color="#0F2D79"/><stop offset="1" stop-color="#AAEB46"/></linearGradient><linearGradient id="paint8_linear" x1="144.334" y1="100.134" x2="144.338" y2="143.767" gradientUnits="userSpaceOnUse"><stop stop-color="#F5F6FA"/><stop offset=".792" stop-color="#8D9DC5"/></linearGradient><linearGradient id="paint9_linear" x1="145.467" y1="130.167" x2="145.467" y2="68.967" gradientUnits="userSpaceOnUse"><stop stop-color="#fff"/><stop offset="1" stop-color="#E5E9F3"/></linearGradient><filter id="filter0_d" x="0" y="0" width="283" height="283" filterUnits="userSpaceOnUse" color-interpolation-filters="sRGB"><feFlood flood-opacity="0" result="BackgroundImageFix"/><feColorMatrix in="SourceAlpha" values="0 0 0 0 0 0 0 0 0 0 0 0 0 0 0 0 0 0 127 0" result="hardAlpha"/><feOffset/><feGaussianBlur stdDeviation="24"/><feColorMatrix values="0 0 0 0 0.666667 0 0 0 0 0.921569 0 0 0 0 0.27451 0 0 0 1 0"/><feBlend in2="BackgroundImageFix" result="effect1_dropShadow"/><feBlend in="SourceGraphic" in2="effect1_dropShadow" result="shape"/></filter></defs></svg>